<svg width="74" height="74" viewBox="0 0 74 74" fill="none" xmlns="http://www.w3.org/2000/svg">
<g filter="url(#filter0_d_2008_5)">
<circle cx="37" cy="24" r="13" fill="white"/>
</g>
<path d="M36.8125 22.875C38.3164 22.875 39.5625 21.6504 39.5625 20.125C39.5625 18.6211 38.3164 17.375 36.8125 17.375C35.2871 17.375 34.0625 18.6211 34.0625 20.125C34.0625 21.6504 35.2871 22.875 36.8125 22.875ZM37.8867 23.9062H35.7168C33.6543 23.9062 32 25.582 32 27.6445C32 28.0527 32.3223 28.375 32.7305 28.375H40.873C41.2812 28.375 41.625 28.0527 41.625 27.6445C41.625 25.582 39.9492 23.9062 37.8867 23.9062Z" fill="#E21F4D"/>
<defs>
<filter id="filter0_d_2008_5" x="0" y="0" width="74" height="74" filterUnits="userSpaceOnUse" color-interpolation-filters="sRGB">
<feFlood flood-opacity="0" result="BackgroundImageFix"/>
<feColorMatrix in="SourceAlpha" type="matrix" values="0 0 0 0 0 0 0 0 0 0 0 0 0 0 0 0 0 0 127 0" result="hardAlpha"/>
<feOffset dy="13"/>
<feGaussianBlur stdDeviation="12"/>
<feComposite in2="hardAlpha" operator="out"/>
<feColorMatrix type="matrix" values="0 0 0 0 0 0 0 0 0 0 0 0 0 0 0 0 0 0 0.1 0"/>
<feBlend mode="normal" in2="BackgroundImageFix" result="effect1_dropShadow_2008_5"/>
<feBlend mode="normal" in="SourceGraphic" in2="effect1_dropShadow_2008_5" result="shape"/>
</filter>
</defs>
</svg>
